<mxfile host="app.diagrams.net" modified="2022-07-08T08:49:00.918Z" agent="5.0 (Macintosh; Intel Mac OS X 10_15_7) AppleWebKit/537.36 (KHTML, like Gecko) Chrome/103.0.5060.114 Safari/537.36" etag="UXgjanqAemi54KBqBTVK" version="20.0.4" type="github">
  <diagram id="prtHgNgQTEPvFCAcTncT" name="Page-1">
    <mxGraphModel dx="2652" dy="1143" grid="1" gridSize="10" guides="1" tooltips="1" connect="1" arrows="1" fold="1" page="1" pageScale="1" pageWidth="827" pageHeight="1169" math="0" shadow="0">
      <root>
        <mxCell id="0" />
        <mxCell id="1" parent="0" />
        <mxCell id="UH4h_3Y_hmDIXnIcrMvg-1" value="" style="edgeStyle=orthogonalEdgeStyle;rounded=0;orthogonalLoop=1;jettySize=auto;html=1;dashed=1;endArrow=none;endFill=0;" parent="1" edge="1">
          <mxGeometry relative="1" as="geometry">
            <mxPoint x="790" y="440" as="sourcePoint" />
          </mxGeometry>
        </mxCell>
        <mxCell id="UH4h_3Y_hmDIXnIcrMvg-2" style="edgeStyle=orthogonalEdgeStyle;rounded=0;orthogonalLoop=1;jettySize=auto;html=1;endArrow=classic;endFill=1;" parent="1" edge="1">
          <mxGeometry relative="1" as="geometry">
            <mxPoint x="910" y="440" as="targetPoint" />
          </mxGeometry>
        </mxCell>
        <mxCell id="UH4h_3Y_hmDIXnIcrMvg-18" value="" style="ellipse;whiteSpace=wrap;html=1;" parent="1" vertex="1">
          <mxGeometry x="610" y="20" width="40" height="40" as="geometry" />
        </mxCell>
        <mxCell id="UH4h_3Y_hmDIXnIcrMvg-19" value="" style="rounded=0;whiteSpace=wrap;html=1;fontFamily=Helvetica;fontSize=12;fontColor=#000000;align=center;" parent="1" vertex="1">
          <mxGeometry x="690" y="10" width="80" height="60" as="geometry" />
        </mxCell>
        <mxCell id="UH4h_3Y_hmDIXnIcrMvg-20" value="" style="rounded=0;whiteSpace=wrap;html=1;fontFamily=Helvetica;fontSize=12;fontColor=#000000;align=center;" parent="1" vertex="1">
          <mxGeometry x="810" y="10" width="80" height="60" as="geometry" />
        </mxCell>
        <mxCell id="UH4h_3Y_hmDIXnIcrMvg-21" value="" style="ellipse;whiteSpace=wrap;html=1;" parent="1" vertex="1">
          <mxGeometry x="930" y="20" width="40" height="40" as="geometry" />
        </mxCell>
        <mxCell id="UH4h_3Y_hmDIXnIcrMvg-22" value="" style="rounded=0;whiteSpace=wrap;html=1;fontFamily=Helvetica;fontSize=12;fontColor=#000000;align=center;" parent="1" vertex="1">
          <mxGeometry x="690" y="130" width="80" height="60" as="geometry" />
        </mxCell>
        <mxCell id="UH4h_3Y_hmDIXnIcrMvg-23" value="" style="rhombus;whiteSpace=wrap;html=1;fontFamily=Helvetica;fontSize=12;fontColor=#000000;align=center;" parent="1" vertex="1">
          <mxGeometry x="830" y="140" width="40" height="40" as="geometry" />
        </mxCell>
        <mxCell id="UH4h_3Y_hmDIXnIcrMvg-25" value="" style="rhombus;whiteSpace=wrap;html=1;fontFamily=Helvetica;fontSize=12;fontColor=#000000;align=center;strokeColor=default;strokeWidth=3;" parent="1" vertex="1">
          <mxGeometry x="930" y="250" width="40" height="40" as="geometry" />
        </mxCell>
        <mxCell id="UH4h_3Y_hmDIXnIcrMvg-67" value="" style="group;strokeColor=default;strokeWidth=3;" parent="1" vertex="1" connectable="0">
          <mxGeometry x="-630" y="780" width="6860" height="1680" as="geometry" />
        </mxCell>
        <mxCell id="UH4h_3Y_hmDIXnIcrMvg-36" value="FRONTEND" style="swimlane;horizontal=0;labelBackgroundColor=none;fillColor=#3399FF;fontColor=#FFFFFF;strokeColor=default;strokeWidth=3;fontSize=24;perimeterSpacing=1;swimlaneLine=0;" parent="UH4h_3Y_hmDIXnIcrMvg-67" vertex="1">
          <mxGeometry width="6860" height="280" as="geometry" />
        </mxCell>
        <mxCell id="UH4h_3Y_hmDIXnIcrMvg-58" value="TELA DE ENTREGA" style="rounded=1;whiteSpace=wrap;html=1;labelBackgroundColor=none;fontColor=#000000;fillColor=#CCE5FF;strokeColor=default;strokeWidth=2;fontSize=14;fontStyle=1" parent="UH4h_3Y_hmDIXnIcrMvg-36" vertex="1">
          <mxGeometry x="157" y="203.63636363636363" width="163" height="25.454545454545453" as="geometry" />
        </mxCell>
        <mxCell id="UH4h_3Y_hmDIXnIcrMvg-68" value="TELA DE ENTREGA&lt;br&gt;[Seleciona Método]" style="rounded=1;whiteSpace=wrap;html=1;labelBackgroundColor=none;fontColor=#000000;fillColor=#CCE5FF;strokeColor=default;strokeWidth=2;fontSize=14;fontStyle=1" parent="UH4h_3Y_hmDIXnIcrMvg-36" vertex="1">
          <mxGeometry x="509" y="170" width="163" height="59.09" as="geometry" />
        </mxCell>
        <mxCell id="UH4h_3Y_hmDIXnIcrMvg-78" value="FINALIZA PEDIDO" style="rounded=1;whiteSpace=wrap;html=1;labelBackgroundColor=none;fontColor=#000000;fillColor=#CCE5FF;strokeColor=default;strokeWidth=2;fontSize=14;fontStyle=1" parent="UH4h_3Y_hmDIXnIcrMvg-36" vertex="1">
          <mxGeometry x="810" y="203.63636363636363" width="163" height="25.454545454545453" as="geometry" />
        </mxCell>
        <mxCell id="UH4h_3Y_hmDIXnIcrMvg-54" value="SALESFORCE COMMERCE CLOUD" style="swimlane;horizontal=0;labelBackgroundColor=none;fillColor=#0000FF;fontColor=#FFFFFF;strokeColor=default;strokeWidth=3;fontSize=24;perimeterSpacing=1;swimlaneLine=0;" parent="UH4h_3Y_hmDIXnIcrMvg-67" vertex="1">
          <mxGeometry y="560" width="6860" height="280" as="geometry" />
        </mxCell>
        <mxCell id="UH4h_3Y_hmDIXnIcrMvg-71" value="" style="rounded=0;whiteSpace=wrap;html=1;fontFamily=Helvetica;fontSize=14;fontColor=#ffffff;align=center;fillColor=#0000FF;strokeColor=default;strokeWidth=2;fontStyle=1" parent="UH4h_3Y_hmDIXnIcrMvg-54" vertex="1">
          <mxGeometry x="162" y="110.00272727272727" width="153" height="30.545454545454547" as="geometry" />
        </mxCell>
        <mxCell id="UH4h_3Y_hmDIXnIcrMvg-72" value="shipping_method" style="rounded=0;whiteSpace=wrap;html=1;fontFamily=Helvetica;fontSize=14;fontColor=#ffffff;align=center;fillColor=#0000FF;strokeColor=default;strokeWidth=2;fontStyle=1" parent="UH4h_3Y_hmDIXnIcrMvg-54" vertex="1">
          <mxGeometry x="514" y="110.00272727272727" width="153" height="30.545454545454547" as="geometry" />
        </mxCell>
        <mxCell id="weExqB_nzbaYjORjGd64-12" style="edgeStyle=orthogonalEdgeStyle;rounded=0;orthogonalLoop=1;jettySize=auto;html=1;fontColor=#000000;endArrow=block;endFill=1;endSize=8;strokeWidth=3;" edge="1" parent="UH4h_3Y_hmDIXnIcrMvg-54" source="weExqB_nzbaYjORjGd64-5" target="weExqB_nzbaYjORjGd64-11">
          <mxGeometry relative="1" as="geometry" />
        </mxCell>
        <mxCell id="weExqB_nzbaYjORjGd64-5" value="shipping_method" style="rounded=0;whiteSpace=wrap;html=1;fontFamily=Helvetica;fontSize=14;fontColor=#ffffff;align=center;fillColor=#0000FF;strokeColor=default;strokeWidth=2;fontStyle=1" vertex="1" parent="UH4h_3Y_hmDIXnIcrMvg-54">
          <mxGeometry x="815" y="75.00272727272727" width="153" height="30.545454545454547" as="geometry" />
        </mxCell>
        <mxCell id="weExqB_nzbaYjORjGd64-11" value="Método OMNI?" style="rhombus;whiteSpace=wrap;html=1;labelBackgroundColor=none;fontColor=#ffffff;fillColor=#e51400;strokeColor=default;strokeWidth=2;fontSize=14;fontStyle=1" vertex="1" parent="UH4h_3Y_hmDIXnIcrMvg-54">
          <mxGeometry x="830.85" y="145" width="121.29" height="112.45" as="geometry" />
        </mxCell>
        <mxCell id="weExqB_nzbaYjORjGd64-18" value="Sucesso?" style="rhombus;whiteSpace=wrap;html=1;labelBackgroundColor=none;fontColor=#ffffff;fillColor=#e51400;strokeColor=default;strokeWidth=2;fontSize=14;fontStyle=1" vertex="1" parent="UH4h_3Y_hmDIXnIcrMvg-54">
          <mxGeometry x="1010" y="33.549999999999955" width="121.29" height="112.45" as="geometry" />
        </mxCell>
        <mxCell id="weExqB_nzbaYjORjGd64-19" style="edgeStyle=orthogonalEdgeStyle;rounded=0;orthogonalLoop=1;jettySize=auto;html=1;fontColor=#000000;endArrow=block;endFill=1;endSize=8;strokeWidth=3;entryX=0;entryY=0.5;entryDx=0;entryDy=0;" edge="1" parent="UH4h_3Y_hmDIXnIcrMvg-54" source="weExqB_nzbaYjORjGd64-5" target="weExqB_nzbaYjORjGd64-18">
          <mxGeometry relative="1" as="geometry">
            <mxPoint x="1010" y="65.27545454545498" as="targetPoint" />
          </mxGeometry>
        </mxCell>
        <mxCell id="UH4h_3Y_hmDIXnIcrMvg-55" value="FORCE" style="swimlane;horizontal=0;labelBackgroundColor=none;fillColor=#00994D;fontColor=#FFFFFF;strokeColor=default;strokeWidth=3;fontSize=24;perimeterSpacing=1;swimlaneLine=0;" parent="UH4h_3Y_hmDIXnIcrMvg-67" vertex="1">
          <mxGeometry y="840" width="6860" height="280" as="geometry" />
        </mxCell>
        <mxCell id="UH4h_3Y_hmDIXnIcrMvg-62" style="edgeStyle=orthogonalEdgeStyle;rounded=0;orthogonalLoop=1;jettySize=auto;html=1;entryX=0;entryY=0.5;entryDx=0;entryDy=0;fontColor=#000000;strokeWidth=3;endArrow=block;endFill=1;strokeColor=default;fontSize=14;fontStyle=1;endSize=8;" parent="UH4h_3Y_hmDIXnIcrMvg-55" source="UH4h_3Y_hmDIXnIcrMvg-24" target="UH4h_3Y_hmDIXnIcrMvg-61" edge="1">
          <mxGeometry relative="1" as="geometry" />
        </mxCell>
        <mxCell id="UH4h_3Y_hmDIXnIcrMvg-24" value="getPostalCode" style="rounded=0;whiteSpace=wrap;html=1;fontFamily=Helvetica;fontSize=14;fontColor=#ffffff;align=center;fillColor=#00994D;strokeColor=default;strokeWidth=2;fontStyle=1" parent="UH4h_3Y_hmDIXnIcrMvg-55" vertex="1">
          <mxGeometry x="162" y="100.95272727272726" width="153" height="30.545454545454547" as="geometry" />
        </mxCell>
        <mxCell id="UH4h_3Y_hmDIXnIcrMvg-61" value="Método OMNI?" style="rhombus;whiteSpace=wrap;html=1;labelBackgroundColor=none;fontColor=#ffffff;fillColor=#e51400;strokeColor=default;strokeWidth=2;fontSize=14;fontStyle=1" parent="UH4h_3Y_hmDIXnIcrMvg-55" vertex="1">
          <mxGeometry x="420" y="60" width="121.29" height="112.45" as="geometry" />
        </mxCell>
        <mxCell id="UH4h_3Y_hmDIXnIcrMvg-56" value="INTELLIPOST" style="swimlane;horizontal=0;labelBackgroundColor=none;fillColor=#FAD902;fontColor=#FFFFFF;strokeColor=default;strokeWidth=3;fontSize=24;perimeterSpacing=1;swimlaneLine=0;" parent="UH4h_3Y_hmDIXnIcrMvg-67" vertex="1">
          <mxGeometry y="1120" width="6860" height="280" as="geometry" />
        </mxCell>
        <mxCell id="UH4h_3Y_hmDIXnIcrMvg-63" value="quote_by_product" style="rounded=0;whiteSpace=wrap;html=1;fontFamily=Helvetica;fontSize=14;fontColor=#ffffff;align=center;fillColor=#FAD902;strokeColor=default;strokeWidth=2;fontStyle=1" parent="UH4h_3Y_hmDIXnIcrMvg-56" vertex="1">
          <mxGeometry x="162" y="101.81818181818181" width="153" height="30.545454545454547" as="geometry" />
        </mxCell>
        <mxCell id="UH4h_3Y_hmDIXnIcrMvg-57" value="AWS CLOUDSEARCH" style="swimlane;horizontal=0;labelBackgroundColor=none;fillColor=#FF8000;fontColor=#FFFFFF;strokeColor=default;strokeWidth=3;fontSize=24;perimeterSpacing=1;swimlaneLine=0;" parent="UH4h_3Y_hmDIXnIcrMvg-67" vertex="1">
          <mxGeometry y="1400" width="6860" height="280" as="geometry" />
        </mxCell>
        <mxCell id="UH4h_3Y_hmDIXnIcrMvg-65" value="search_stores" style="rounded=0;whiteSpace=wrap;html=1;fontFamily=Helvetica;fontSize=14;fontColor=#ffffff;align=center;fillColor=#FF8000;strokeColor=default;strokeWidth=2;fontStyle=1" parent="UH4h_3Y_hmDIXnIcrMvg-57" vertex="1">
          <mxGeometry x="404.14" y="71.27272727272728" width="153" height="30.545454545454547" as="geometry" />
        </mxCell>
        <mxCell id="UH4h_3Y_hmDIXnIcrMvg-59" value="MULESOFT" style="swimlane;horizontal=0;labelBackgroundColor=none;fillColor=#999999;fontColor=#FFFFFF;strokeColor=default;strokeWidth=3;fontSize=24;perimeterSpacing=1;swimlaneLine=0;" parent="UH4h_3Y_hmDIXnIcrMvg-67" vertex="1">
          <mxGeometry y="280" width="6860" height="280" as="geometry" />
        </mxCell>
        <mxCell id="UH4h_3Y_hmDIXnIcrMvg-69" value="" style="rounded=0;whiteSpace=wrap;html=1;fontFamily=Helvetica;fontSize=14;fontColor=#ffffff;align=center;fillColor=#999999;strokeColor=default;strokeWidth=2;fontStyle=1" parent="UH4h_3Y_hmDIXnIcrMvg-59" vertex="1">
          <mxGeometry x="162" y="120.00272727272727" width="153" height="30.545454545454547" as="geometry" />
        </mxCell>
        <mxCell id="UH4h_3Y_hmDIXnIcrMvg-70" value="" style="rounded=0;whiteSpace=wrap;html=1;fontFamily=Helvetica;fontSize=14;fontColor=#ffffff;align=center;fillColor=#999999;strokeColor=default;strokeWidth=2;fontStyle=1" parent="UH4h_3Y_hmDIXnIcrMvg-59" vertex="1">
          <mxGeometry x="514" y="120.00272727272727" width="153" height="30.545454545454547" as="geometry" />
        </mxCell>
        <mxCell id="weExqB_nzbaYjORjGd64-6" value="" style="rounded=0;whiteSpace=wrap;html=1;fontFamily=Helvetica;fontSize=14;fontColor=#ffffff;align=center;fillColor=#999999;strokeColor=default;strokeWidth=2;fontStyle=1" vertex="1" parent="UH4h_3Y_hmDIXnIcrMvg-59">
          <mxGeometry x="815" y="120.00272727272727" width="153" height="30.545454545454547" as="geometry" />
        </mxCell>
        <mxCell id="UH4h_3Y_hmDIXnIcrMvg-60" style="edgeStyle=orthogonalEdgeStyle;rounded=0;orthogonalLoop=1;jettySize=auto;html=1;fontColor=#000000;strokeWidth=3;endArrow=block;endFill=1;strokeColor=default;fontSize=14;fontStyle=1;endSize=8;" parent="UH4h_3Y_hmDIXnIcrMvg-67" source="UH4h_3Y_hmDIXnIcrMvg-58" edge="1">
          <mxGeometry relative="1" as="geometry">
            <mxPoint x="239" y="400" as="targetPoint" />
          </mxGeometry>
        </mxCell>
        <mxCell id="UH4h_3Y_hmDIXnIcrMvg-64" style="edgeStyle=orthogonalEdgeStyle;rounded=0;orthogonalLoop=1;jettySize=auto;html=1;fontColor=#000000;strokeWidth=3;endArrow=block;endFill=1;strokeColor=default;fontSize=14;fontStyle=1;endSize=8;" parent="UH4h_3Y_hmDIXnIcrMvg-67" source="UH4h_3Y_hmDIXnIcrMvg-24" target="UH4h_3Y_hmDIXnIcrMvg-63" edge="1">
          <mxGeometry relative="1" as="geometry" />
        </mxCell>
        <mxCell id="UH4h_3Y_hmDIXnIcrMvg-66" style="edgeStyle=orthogonalEdgeStyle;rounded=0;orthogonalLoop=1;jettySize=auto;html=1;fontColor=#000000;entryX=0.5;entryY=0;entryDx=0;entryDy=0;strokeWidth=3;endArrow=block;endFill=1;strokeColor=default;fontSize=14;fontStyle=1;endSize=8;" parent="UH4h_3Y_hmDIXnIcrMvg-67" source="UH4h_3Y_hmDIXnIcrMvg-61" target="UH4h_3Y_hmDIXnIcrMvg-65" edge="1">
          <mxGeometry relative="1" as="geometry">
            <mxPoint x="-149.35500000000002" y="1858.181818181818" as="targetPoint" />
          </mxGeometry>
        </mxCell>
        <mxCell id="UH4h_3Y_hmDIXnIcrMvg-73" style="edgeStyle=orthogonalEdgeStyle;rounded=0;orthogonalLoop=1;jettySize=auto;html=1;entryX=0.5;entryY=0;entryDx=0;entryDy=0;fontSize=14;fontColor=#000000;endArrow=block;endFill=1;strokeColor=default;strokeWidth=3;endSize=8;" parent="UH4h_3Y_hmDIXnIcrMvg-67" source="UH4h_3Y_hmDIXnIcrMvg-68" target="UH4h_3Y_hmDIXnIcrMvg-70" edge="1">
          <mxGeometry relative="1" as="geometry" />
        </mxCell>
        <mxCell id="UH4h_3Y_hmDIXnIcrMvg-74" style="edgeStyle=orthogonalEdgeStyle;rounded=0;orthogonalLoop=1;jettySize=auto;html=1;entryX=0.5;entryY=0;entryDx=0;entryDy=0;fontSize=14;fontColor=#000000;endArrow=block;endFill=1;strokeColor=default;strokeWidth=3;endSize=8;" parent="UH4h_3Y_hmDIXnIcrMvg-67" source="UH4h_3Y_hmDIXnIcrMvg-70" target="UH4h_3Y_hmDIXnIcrMvg-72" edge="1">
          <mxGeometry relative="1" as="geometry" />
        </mxCell>
        <mxCell id="UH4h_3Y_hmDIXnIcrMvg-75" style="edgeStyle=orthogonalEdgeStyle;rounded=0;orthogonalLoop=1;jettySize=auto;html=1;fontSize=14;fontColor=#000000;endArrow=block;endFill=1;strokeColor=default;strokeWidth=3;endSize=8;" parent="UH4h_3Y_hmDIXnIcrMvg-67" source="UH4h_3Y_hmDIXnIcrMvg-69" target="UH4h_3Y_hmDIXnIcrMvg-71" edge="1">
          <mxGeometry relative="1" as="geometry" />
        </mxCell>
        <mxCell id="UH4h_3Y_hmDIXnIcrMvg-76" style="edgeStyle=orthogonalEdgeStyle;rounded=0;orthogonalLoop=1;jettySize=auto;html=1;entryX=0.5;entryY=0;entryDx=0;entryDy=0;fontSize=14;fontColor=#000000;endArrow=block;endFill=1;strokeColor=default;strokeWidth=3;endSize=8;" parent="UH4h_3Y_hmDIXnIcrMvg-67" source="UH4h_3Y_hmDIXnIcrMvg-71" target="UH4h_3Y_hmDIXnIcrMvg-24" edge="1">
          <mxGeometry relative="1" as="geometry" />
        </mxCell>
        <mxCell id="weExqB_nzbaYjORjGd64-9" style="edgeStyle=orthogonalEdgeStyle;rounded=0;orthogonalLoop=1;jettySize=auto;html=1;entryX=0.5;entryY=0;entryDx=0;entryDy=0;fontColor=#000000;strokeWidth=3;endArrow=block;endFill=1;endSize=8;" edge="1" parent="UH4h_3Y_hmDIXnIcrMvg-67" source="UH4h_3Y_hmDIXnIcrMvg-78" target="weExqB_nzbaYjORjGd64-6">
          <mxGeometry relative="1" as="geometry" />
        </mxCell>
        <mxCell id="weExqB_nzbaYjORjGd64-10" style="edgeStyle=orthogonalEdgeStyle;rounded=0;orthogonalLoop=1;jettySize=auto;html=1;entryX=0.5;entryY=0;entryDx=0;entryDy=0;fontColor=#000000;strokeWidth=3;endArrow=block;endFill=1;endSize=8;" edge="1" parent="UH4h_3Y_hmDIXnIcrMvg-67" source="weExqB_nzbaYjORjGd64-6" target="weExqB_nzbaYjORjGd64-5">
          <mxGeometry relative="1" as="geometry" />
        </mxCell>
        <mxCell id="weExqB_nzbaYjORjGd64-1" value="OMNI" style="swimlane;horizontal=0;labelBackgroundColor=none;fillColor=#CCE5FF;fontColor=#000000;strokeColor=default;strokeWidth=3;fontSize=24;perimeterSpacing=1;swimlaneLine=0;" vertex="1" parent="1">
          <mxGeometry x="-630" y="2460" width="6860" height="280" as="geometry" />
        </mxCell>
        <mxCell id="weExqB_nzbaYjORjGd64-16" style="edgeStyle=orthogonalEdgeStyle;rounded=0;orthogonalLoop=1;jettySize=auto;html=1;entryX=0.5;entryY=0;entryDx=0;entryDy=0;fontColor=#000000;endArrow=block;endFill=1;endSize=8;strokeWidth=3;" edge="1" parent="weExqB_nzbaYjORjGd64-1" source="weExqB_nzbaYjORjGd64-13" target="weExqB_nzbaYjORjGd64-14">
          <mxGeometry relative="1" as="geometry" />
        </mxCell>
        <mxCell id="weExqB_nzbaYjORjGd64-13" value="order_create" style="rounded=0;whiteSpace=wrap;html=1;fontFamily=Helvetica;fontSize=14;fontColor=#000000;align=center;fillColor=#CCE5FF;strokeColor=default;strokeWidth=2;fontStyle=1" vertex="1" parent="weExqB_nzbaYjORjGd64-1">
          <mxGeometry x="814" y="60.0027272727275" width="153" height="30.545454545454547" as="geometry" />
        </mxCell>
        <mxCell id="weExqB_nzbaYjORjGd64-14" value="&lt;b&gt;INITIAL&lt;/b&gt;" style="shape=parallelogram;perimeter=parallelogramPerimeter;whiteSpace=wrap;html=1;fixedSize=1;fontColor=#000000;fillColor=#CCE5FF;strokeWidth=2;" vertex="1" parent="weExqB_nzbaYjORjGd64-1">
          <mxGeometry x="812" y="170" width="160" height="40" as="geometry" />
        </mxCell>
        <mxCell id="weExqB_nzbaYjORjGd64-3" value="CLOUDSEARCH" style="swimlane;horizontal=0;labelBackgroundColor=none;fillColor=#FAD902;fontColor=#000000;strokeColor=default;strokeWidth=3;fontSize=24;perimeterSpacing=1;swimlaneLine=0;" vertex="1" parent="1">
          <mxGeometry x="-630" y="2740" width="6860" height="280" as="geometry" />
        </mxCell>
        <mxCell id="weExqB_nzbaYjORjGd64-17" style="edgeStyle=orthogonalEdgeStyle;rounded=0;orthogonalLoop=1;jettySize=auto;html=1;entryX=0.5;entryY=0;entryDx=0;entryDy=0;fontColor=#000000;endArrow=block;endFill=1;endSize=8;strokeWidth=3;" edge="1" parent="1" source="weExqB_nzbaYjORjGd64-11" target="weExqB_nzbaYjORjGd64-13">
          <mxGeometry relative="1" as="geometry" />
        </mxCell>
      </root>
    </mxGraphModel>
  </diagram>
</mxfile>
